# xmcd
# 
# Track frame offsets:
#     150
#     14006
#     29824
#     48803
#     62217
#     81135
#     97488
#     110916
#     124953
#     140991
#     155021
#     171332
#     184500
#     196774
#     209439
#     228337
#     240845
#     258467
# 
# Disc length: 3593
# 
# Revision: 2
# Processed by: cddbd v1.5.2PL0 Copyright (c) Steve Scherf et al.
# Submitted via: fre:ac v1.0.31
# 
DISCID=100e0712
DTITLE=Leon Redbone - Long Way From Home
DYEAR=0
DGENRE=Rock/Pop
TTITLE0=Lord, I Looked Down The Road
TTITLE1=Mother, Queen Of My Heart
TTITLE2=T B Blues
TTITLE3=Don't Let It Bother You
TTITLE4=Marie
TTITLE5=Me And The Devil Blues
TTITLE6=If I Had Possession Over Judgement Day
TTITLE7=Mississippi River Blues
TTITLE8=Kind Hearted Woman Blues
TTITLE9=Old Love Letters
TTITLE10=Sweet Mama Hurry Home Or I'll Be Gone
TTITLE11=Noboby Knows But Me
TTITLE12=My Walking Stick
TTITLE13=Cat Man Blues
TTITLE14=Gambling Bar Room Blues
TTITLE15=My Good Gal's Gone Blues
TTITLE16=Yodeling Cowboy
TTITLE17=Bootleg Rum Dum Blues
EXTD=
EXTT0=
EXTT1=
EXTT2=
EXTT3=
EXTT4=
EXTT5=
EXTT6=
EXTT7=
EXTT8=
EXTT9=
EXTT10=
EXTT11=
EXTT12=
EXTT13=
EXTT14=
EXTT15=
EXTT16=
EXTT17=
PLAYORDER=
